<?xml version="1.0" encoding="utf-8"?>
<!-- Generator: Adobe Illustrator 26.0.2, SVG Export Plug-In . SVG Version: 6.00 Build 0)  -->
<svg version="1.1" id="Layer_1" xmlns="http://www.w3.org/2000/svg" xmlns:xlink="http://www.w3.org/1999/xlink" x="0px" y="0px"
	 viewBox="0 0 595.3 372.8" style="enable-background:new 0 0 595.3 372.8;" xml:space="preserve">
<style type="text/css">
	.st0{fill:#F0D0B4;}
	.st1{fill:url(#SVGID_1_);}
	.st2{fill:#414142;stroke:#414142;stroke-width:1.4325;}
	.st3{fill:#FFFFFF;}
	.st4{fill:#1C3557;}
	.st5{fill:#333333;}
	.st6{fill:#284059;}
	.st7{opacity:0.5;fill:#264C90;}
	.st8{fill:#375572;}
	.st9{fill:#30B3BC;}
	.st10{opacity:0.5;fill:#F47A20;}
	.st11{fill:none;stroke:#FFFFFF;stroke-width:3.552;stroke-linecap:round;stroke-miterlimit:10;}
	.st12{fill:#EBC19C;}
	.st13{opacity:0.3;fill:#F0D0B4;}
	.st14{fill:#292929;}
	.st15{fill:#CFD1D1;}
	.st16{fill:#E6E6E5;}
	.st17{fill:#F3F3F3;}
	.st18{fill:#ACAEB0;}
	.st19{opacity:0.3;}
	.st20{fill:#B5B6B7;}
	.st21{fill:#F68922;}
</style>
<g>
	<path class="st0" d="M421.7,51.9L421.7,51.9c-0.5-4.2-4.3-7.2-8.4-6.7l-14.9,2.1c-4.2,0.5-7.2,4.3-6.7,8.4v0
		c0.5,4.2,4.3,7.2,8.4,6.7l14.9-2.1C419.1,59.9,422.2,56.1,421.7,51.9z"/>
	<path class="st0" d="M390.7,102.7L390.7,102.7c2.5-11.1-4.6-22.2-15.7-24.7L363.6,76c-11.1-2.5-22.2,4.6-24.7,15.7v0
		c-2.5,11.1,4.6,22.2,15.7,24.7l11.4,2.1C377.2,120.9,388.2,113.9,390.7,102.7z"/>
	<g>
		<g>
			<g>
				
					<linearGradient id="SVGID_1_" gradientUnits="userSpaceOnUse" x1="329.0266" y1="-268.5135" x2="330.6401" y2="-226.026" gradientTransform="matrix(0.9929 -0.1193 0.1193 0.9929 77.6133 336.968)">
					<stop  offset="0" style="stop-color:#29ABE2"/>
					<stop  offset="1" style="stop-color:#1D76BB"/>
				</linearGradient>
				<path class="st1" d="M367.6,17l25.2,2.2c4.6,0.4,8.1,4.5,7.6,9.1l-5.9,62c-0.4,4.6-4.5,8.1-9.1,7.6l-25.2-2.2
					c-4.6-0.4-8.1-4.5-7.6-9.1l5.9-62C358.8,20,362.9,16.6,367.6,17z"/>
				<path class="st2" d="M387.3,99.8c-0.7,0.1-1.4,0.1-2.2,0L360,97.6c-5.7-0.5-9.8-5.5-9.3-11.2l5.9-62c0.5-5.7,5.5-9.8,11.2-9.3
					l25.2,2.2c2.7,0.2,5.2,1.5,7,3.7c1.8,2.1,2.6,4.8,2.4,7.5l-5.9,62c-0.2,2.7-1.5,5.2-3.7,7C391.2,98.8,389.3,99.6,387.3,99.8z
					 M366,18.9c-3,0.4-5.5,2.8-5.8,5.9l-5.9,62c-0.3,3.6,2.4,6.8,6,7.1l25.2,2.2c1.7,0.2,3.4-0.4,4.8-1.5c1.3-1.1,2.2-2.7,2.3-4.5
					l5.9-62c0.2-1.7-0.4-3.5-1.5-4.8c-1.1-1.3-2.7-2.2-4.5-2.3l-25.2-2.2C366.9,18.8,366.5,18.8,366,18.9z"/>
			</g>
			<g>
				<line class="st3" x1="365.3" y1="91" x2="381.1" y2="92.4"/>
				<path class="st4" d="M381.2,93.3c-0.1,0-0.1,0-0.2,0l-15.8-1.4c-0.5,0-0.8-0.5-0.8-0.9c0-0.5,0.5-0.8,0.9-0.8l15.8,1.4
					c0.5,0,0.8,0.5,0.8,0.9C381.9,92.9,381.6,93.2,381.2,93.3z"/>
			</g>
		</g>
	</g>
	<g>
		<path class="st0" d="M404.5,94.4L404.5,94.4c-0.5-4.2-4.3-7.2-8.4-6.7l-6.5,0.9c-4.2,0.5-7.2,4.3-6.7,8.4v0
			c0.5,4.2,4.3,7.2,8.4,6.7l6.5-0.9C402,102.4,405,98.6,404.5,94.4z"/>
		<path class="st0" d="M407.2,81.9L407.2,81.9c-0.5-4.2-4.3-7.2-8.4-6.7l-6.5,0.9c-4.2,0.5-7.2,4.3-6.7,8.4v0
			c0.5,4.2,4.3,7.2,8.4,6.7l6.5-0.9C404.7,89.8,407.7,86,407.2,81.9z"/>
		<path class="st0" d="M410.2,67.6L410.2,67.6c-0.5-4.2-4.3-7.2-8.4-6.7l-6.5,0.9c-4.2,0.5-7.2,4.3-6.7,8.4v0
			c0.5,4.2,4.3,7.2,8.4,6.7l6.5-0.9C407.7,75.6,410.7,71.8,410.2,67.6z"/>
	</g>
	<path class="st0" d="M354,48.3L354,48.3c-4.4-1-8.7,1.8-9.7,6.2l-7.1,33.9c-1,4.4,1.8,8.7,6.2,9.7h0c4.4,1,8.7-1.8,9.7-6.2
		l7.1-33.9C361.1,53.6,358.4,49.2,354,48.3z"/>
	<path class="st0" d="M364.1,107.6c1-1.8,1.8-3.7,2.3-5.8l0,0c2.5-11.1-4.6-22.2-15.7-24.7l-4.6-0.9l-5.6,26.4L364.1,107.6z"/>
	<g>
		<path class="st0" d="M198.2,347.1c-4.6-3.6-10.4-5.8-16.6-5.8l0,0c-6.3,0-12.1,2.2-16.6,5.8H198.2z"/>
		<path class="st0" d="M198.2,347.1c-4.6-3.6-10.4-5.8-16.6-5.8s-12.1,2.2-16.6,5.8H198.2z"/>
	</g>
	<g>
		<path class="st0" d="M265.4,347.1c-4.6-3.6-10.4-5.8-16.6-5.8h0c-6.3,0-12.1,2.2-16.6,5.8H265.4z"/>
		<path class="st0" d="M265.4,347.1c-4.6-3.6-10.4-5.8-16.6-5.8c-6.3,0-12.1,2.2-16.6,5.8H265.4z"/>
	</g>
	<path class="st5" d="M187.2,347.1H248c33.5-12.4,57.4-44.6,57.4-82.3v-148c0-48.5-39.3-87.7-87.7-87.7h0
		c-48.5,0-87.7,39.3-87.7,87.7v148C129.9,302.6,153.7,334.8,187.2,347.1z"/>
	<circle class="st0" cx="296.9" cy="126.5" r="13.2"/>
	<circle class="st0" cx="140.9" cy="126.5" r="13.2"/>
	<g>
		<path class="st0" d="M343.2,104.9l-37.5,104.6c-4.3,10.4,0.6,22.3,11,26.6l0,0c10.4,4.3,22.3-0.6,26.6-11l44.5-121.4L343.2,104.9z
			"/>
		<path class="st0" d="M343,208.8L343,208.8c-4.7-10.2-16.8-14.7-27-10l-67.9,31.1c-10.2,4.7-14.7,16.8-10,27l0,0
			c4.7,10.2,16.8,14.7,27,10l67.9-31.1C343.1,231.1,347.6,219.1,343,208.8z"/>
		<circle class="st0" cx="324.4" cy="217.3" r="20.4"/>
		<circle class="st0" cx="256.6" cy="248.4" r="20.4"/>
	</g>
	<path class="st0" d="M82.9,190.8L82.9,190.8c-10.6,3.8-16,15.5-12.2,26.1l30.6,84.2c3.8,10.6,15.5,16,26.1,12.2h0
		c10.6-3.8,16-15.5,12.2-26.1L109,202.9C105.2,192.4,93.5,186.9,82.9,190.8z"/>
	<path class="st0" d="M103.8,305.8L103.8,305.8c6.5,9.2,19.2,11.4,28.4,4.9l61-43c9.2-6.5,11.4-19.2,4.9-28.4l0,0
		c-6.5-9.2-19.2-11.4-28.4-4.9l-61,43C99.6,283.9,97.4,296.6,103.8,305.8z"/>
	<circle class="st0" cx="120.5" cy="294.1" r="20.4"/>
	<circle class="st0" cx="181.5" cy="251.1" r="20.4"/>
	<path class="st6" d="M276.2,347.1c-6.7-8.3-14.4-15.9-23.1-22.6l0,0h-72.2h0c-8.7,6.6-16.4,14.2-23.1,22.6H276.2z"/>
	<path class="st7" d="M257.9,347.1h18.3c-6.7-8.3-14.4-15.9-23.1-22.6l0,0h-18.3v0C243.5,331.2,251.2,338.8,257.9,347.1z"/>
	<path class="st6" d="M249.2,225.1h-64.5l0,0c-24,16.4-30.2,49.1-13.9,73.2l9.5,14.1h73.1l9.5-14.1
		C279.4,274.2,273.2,241.5,249.2,225.1L249.2,225.1z"/>
	<path class="st8" d="M230.9,225.1h18.3l0,0c24,16.4,30.2,49.1,13.9,73.2l-9.5,14.1h-18.3l9.5-14.1
		C261.1,274.2,254.9,241.5,230.9,225.1z"/>
	
		<rect x="180.9" y="312.4" transform="matrix(-1 -4.479407e-11 4.479407e-11 -1 434.4839 636.9421)" class="st9" width="72.7" height="12.2"/>
	<rect x="242.8" y="312.4" class="st10" width="10.8" height="12.2"/>
	
		<rect x="204.6" y="308.6" transform="matrix(-1 -4.506097e-11 4.506097e-11 -1 437.208 636.3136)" class="st11" width="28" height="19.1"/>
	<path class="st0" d="M231.8,163.5h-29.4v71.1c0,8.1,6.6,14.7,14.7,14.7h0c8.1,0,14.7-6.6,14.7-14.7V163.5z"/>
	<path class="st12" d="M231.8,208.8c-4.6,0.9-9.3,1.4-14.2,1.4h0c-5.2,0-10.3-0.5-15.2-1.6v-45.1h29.4V208.8z"/>
	<path class="st0" d="M217.6,34.3L217.6,34.3c-40.6,0-73.6,32.9-73.6,73.6v19.9c0,40.6,32.9,73.6,73.6,73.6h0
		c40.6,0,73.6-32.9,73.6-73.6v-19.9C291.2,67.2,258.2,34.3,217.6,34.3z"/>
	<path class="st13" d="M272.3,127.7v-19.9c0-37.4-27.9-68.3-64.1-72.9c3.1-0.4,6.3-0.6,9.5-0.6l0,0c40.6,0,73.6,32.9,73.6,73.6v19.9
		c0,40.6-32.9,73.6-73.6,73.6l0,0c-3.2,0-6.4-0.2-9.5-0.6C244.3,196,272.3,165.1,272.3,127.7z"/>
	<path class="st3" d="M236.5,154.6c0,10.5-8.5,18.9-18.9,18.9c-10.5,0-18.9-8.5-18.9-18.9H236.5z"/>
	<path class="st5" d="M218,29.1c47.8,0.5,86.3,39.2,86.8,86.9h0c-47.9,0-86.8-38.8-86.8-86.8V29.1z"/>
	<path class="st14" d="M169.6,114.3h-40.3C130.6,67,169.3,29,216.9,29h0c11.2,0,22,2.1,31.9,6v0C248.8,78.8,213.3,114.3,169.6,114.3
		z"/>
	<circle class="st5" cx="248.8" cy="125.4" r="7.7"/>
	<circle class="st5" cx="206.7" cy="125.4" r="7.7"/>
	<path class="st15" d="M543.6,358.4H68.1c-4.4,0-8-3.6-8-8v-9.8c0-4.4,3.6-8,8-8h475.4c2.2,0,4,1.8,4,4v17.8
		C547.6,356.6,545.8,358.4,543.6,358.4z"/>
	<path class="st16" d="M209.1,332.6c0-14.4,11.6-26,26-26s26,11.6,26,26H209.1z"/>
	<g>
		<rect x="259.4" y="326.7" class="st17" width="123.4" height="5.9"/>
		<rect x="262.9" y="323" class="st17" width="19.4" height="6.1"/>
		<rect x="286.9" y="323" class="st17" width="19.4" height="6.1"/>
		<rect x="311" y="323" class="st17" width="19.4" height="6.1"/>
		<rect x="335.1" y="325.6" class="st17" width="19.4" height="6.1"/>
		<rect x="359.1" y="323" class="st17" width="19.4" height="6.1"/>
	</g>
	<g>
		<g>
			<path class="st18" d="M267.7,141.5h239.7c5.7,0,10.3,4.6,10.3,10.3v145.7c0,5.7-4.6,10.3-10.3,10.3H267.7
				c-5.7,0-10.3-4.6-10.3-10.3V151.8C257.4,146.1,262,141.5,267.7,141.5z"/>
		</g>
		<g>
			<g>
				<path class="st16" d="M295.3,299h-12.3c-0.9,0-1.6-0.7-1.6-1.6s0.7-1.6,1.6-1.6h12.3c0.9,0,1.6,0.7,1.6,1.6S296.1,299,295.3,299
					z"/>
			</g>
			<g>
				<path class="st16" d="M314.7,299h-12.3c-0.9,0-1.6-0.7-1.6-1.6s0.7-1.6,1.6-1.6h12.3c0.9,0,1.6,0.7,1.6,1.6S315.6,299,314.7,299
					z"/>
			</g>
			<g>
				<path class="st16" d="M323.7,299h-2c-0.9,0-1.6-0.7-1.6-1.6s0.7-1.6,1.6-1.6h2c0.9,0,1.6,0.7,1.6,1.6S324.6,299,323.7,299z"/>
			</g>
		</g>
		<g class="st19">
			<path class="st20" d="M508.1,141.5h-23.9L305.5,307.8h202.6c5.7,0,10.3-4.6,10.3-10.3V151.8C518.3,146.1,513.7,141.5,508.1,141.5
				z"/>
		</g>
		<rect x="335.8" y="328.6" class="st16" width="103.5" height="4"/>
		<path class="st16" d="M402.5,233.2h-29.9l-14.2,97.4h58.4L402.5,233.2z M387.6,295.6c-7.3,0-13.2-5.9-13.2-13.2
			c0-7.3,5.9-13.2,13.2-13.2c7.3,0,13.2,5.9,13.2,13.2C400.7,289.7,394.8,295.6,387.6,295.6z"/>
	</g>
	<path class="st0" d="M106.2,215.1L106.2,215.1c-6.9,10.6-21.1,13.7-31.8,6.8l-16.2-11.2c-10.6-6.9-13.7-21.1-6.8-31.8l0,0
		c6.9-10.6,21.1-13.7,31.8-6.8l16.2,11.2C110.1,190.2,113.1,204.5,106.2,215.1z"/>
	<g>
		<path class="st3" d="M392.9,37c-0.9-1.1-2.3-1.8-3.9-2l-17.1-1.5c-1.8-0.2-3.5,0.4-5,1.4c-1.4,1-2.6,2.4-3.1,4.2l-2.8,9.8
			c-0.1,0.4-0.2,0.8-0.2,1.2c-0.1,1.5,0.3,3,1.2,4.1c0.9,1.1,2.3,1.8,3.9,2c0,0,0,0,0,0l17.1,1.5c1.8,0.2,3.5-0.4,5-1.4
			c1.4-1,2.6-2.4,3.1-4.2l2.8-9.8c0.1-0.4,0.2-0.8,0.2-1.2C394.3,39.6,393.9,38.1,392.9,37z"/>
		<path class="st21" d="M388.9,36.6l-17.1-1.5c-2.8-0.2-5.6,1.8-6.4,4.5l-2.8,9.8c-0.8,2.7,0.8,5.1,3.6,5.4l17.1,1.5
			c2.8,0.2,5.6-1.8,6.4-4.5l2.8-9.8C393.3,39.2,391.6,36.8,388.9,36.6z M388.3,40.1l-10.6,4.4l-6.2-5.8L388.3,40.1z M386.1,51.5
			c-0.2,0.8-1,1.3-1.8,1.3l-17.1-1.5c-0.8-0.1-1.2-0.8-1-1.5l2.5-8.6l8,7.5l11.7-4.6L386.1,51.5z"/>
	</g>
</g>
</svg>
